<svg width="28" height="28" viewBox="0 0 28 28" fill="none" xmlns="http://www.w3.org/2000/svg">
<path d="M2.47478 20.3112C1.25928 15.4492 0.651529 13.0197 1.92795 11.3848C3.20295 9.75 5.71045 9.75 10.7212 9.75H17.2804C22.2925 9.75 24.7972 9.75 26.0736 11.3848C27.35 13.0183 26.7423 15.4507 25.5268 20.3112C24.7533 23.4038 24.3679 24.9494 23.2148 25.8504C22.0616 26.75 20.4679 26.75 17.2804 26.75H10.7212C7.5337 26.75 5.93994 26.75 4.78678 25.8504C3.63361 24.9494 3.24686 23.4038 2.47478 20.3112Z" stroke="#8C8C8C" stroke-width="2.125"/>
<path d="M24.6254 10.4583L23.6195 6.76791C23.2314 5.34416 23.0373 4.63299 22.6392 4.09607C22.2423 3.56265 21.7032 3.15173 21.0837 2.91032C20.4604 2.66666 19.7237 2.66666 18.2504 2.66666M3.37537 10.4583L4.3812 6.76791C4.76937 5.34416 4.96345 4.63299 5.36153 4.09607C5.75845 3.56265 6.29751 3.15173 6.91703 2.91032C7.54037 2.66666 8.27703 2.66666 9.75037 2.66666" stroke="#8C8C8C" stroke-width="2.125"/>
<path d="M9.75037 2.66667C9.75037 2.29094 9.89962 1.93061 10.1653 1.66493C10.431 1.39926 10.7913 1.25 11.167 1.25H16.8337C17.2094 1.25 17.5698 1.39926 17.8354 1.66493C18.1011 1.93061 18.2504 2.29094 18.2504 2.66667C18.2504 3.04239 18.1011 3.40272 17.8354 3.6684C17.5698 3.93408 17.2094 4.08333 16.8337 4.08333H11.167C10.7913 4.08333 10.431 3.93408 10.1653 3.6684C9.89962 3.40272 9.75037 3.04239 9.75037 2.66667Z" stroke="#8C8C8C" stroke-width="2.125"/>
</svg>
